<svg width="60" height="20" viewBox="0 0 60 20" fill="none" xmlns="http://www.w3.org/2000/svg">
<path d="M49.5499 20.0001H10.4387C4.67316 20.0001 0 15.5233 0 10C0 4.47676 4.67316 0 10.4387 0H49.5499C55.3155 0 59.9887 4.47676 59.9887 10C59.9925 15.5197 55.3155 20.0001 49.5499 20.0001Z" fill="#B2FCE4"/>
<path d="M51.1328 7.60871L49.8204 6.88923L48.489 6.15885C47.609 5.67556 46.509 6.2824 46.509 7.25624V7.41976C46.509 7.5106 46.5583 7.59417 46.6418 7.63778L47.26 7.97572C47.4307 8.07019 47.6432 7.95028 47.6432 7.76133V7.37252C47.6432 7.17993 47.8594 7.06002 48.0338 7.15449L49.2477 7.8231L50.4577 8.48807C50.6322 8.58255 50.6322 8.82601 50.4577 8.92049L49.2477 9.58546L48.0338 10.2541C47.8594 10.3485 47.6432 10.2286 47.6432 10.036V9.84346C47.6432 8.86962 46.5431 8.25915 45.6631 8.74607L44.3317 9.47645L43.0193 10.1959C42.1355 10.6828 42.1355 11.9074 43.0193 12.3943L44.3317 13.1138L45.6631 13.8442C46.5431 14.3275 47.6432 13.7206 47.6432 12.7468V12.5833C47.6432 12.4924 47.5938 12.4089 47.5104 12.3653L46.8921 12.0273C46.7214 11.9329 46.509 12.0528 46.509 12.2417V12.6305C46.509 12.8231 46.2928 12.943 46.1183 12.8486L44.9045 12.1799L43.6945 11.515C43.52 11.4205 43.52 11.177 43.6945 11.0826L44.9045 10.4176L46.1183 9.74898C46.2928 9.6545 46.509 9.77441 46.509 9.967V10.1596C46.509 11.1334 47.609 11.7439 48.489 11.257L49.8204 10.5266L51.1328 9.80712C52.0167 9.31656 52.0167 8.09563 51.1328 7.60871Z" fill="black"/>
<path d="M42.5226 7.84766L39.4501 13.9269H38.1756L39.325 11.6558L37.5156 7.84766H38.8243L39.985 10.3985L41.2519 7.84766H42.5226Z" fill="black"/>
<path d="M11.8023 10.0072C11.8023 9.28046 11.2523 8.77174 10.5771 8.77174C9.90193 8.77174 9.35193 9.29136 9.35193 10.0072C9.35193 10.7158 9.90193 11.2427 10.5771 11.2427C11.2523 11.2427 11.8023 10.734 11.8023 10.0072ZM11.8137 12.1656V11.6061C11.4799 11.9949 10.983 12.2347 10.3912 12.2347C9.15468 12.2347 8.21777 11.2863 8.21777 10.0072C8.21777 8.73903 9.19261 7.77246 10.4178 7.77246C10.9944 7.77246 11.4799 8.01592 11.8137 8.39383V7.84877H12.9213V12.1656H11.8137Z" fill="black"/>
<path d="M18.3073 11.2061C17.9204 11.2061 17.8104 11.068 17.8104 10.7046V8.78965H18.5235V7.84851H17.8104V6.79473H16.6762V7.84851H15.2121V7.41973C15.2121 7.05636 15.3562 6.91828 15.7545 6.91828H16.0048V6.08252H15.4586C14.5217 6.08252 14.0779 6.37685 14.0779 7.27438V7.85215H13.4482V8.78965H14.0779V12.1654H15.2121V8.78965H16.6762V10.9045C16.6762 11.7838 17.029 12.1654 17.9469 12.1654H18.5311V11.2061H18.3073Z" fill="black"/>
<path d="M22.3817 9.61813C22.302 9.05853 21.8241 8.72059 21.2627 8.72059C20.7051 8.72059 20.2423 9.04763 20.1285 9.61813H22.3817ZM20.1172 10.2904C20.1968 10.9299 20.6748 11.2933 21.2817 11.2933C21.7596 11.2933 22.1275 11.0789 22.3437 10.7337H23.5082C23.2389 11.6494 22.3817 12.2344 21.2551 12.2344C19.8934 12.2344 18.9375 11.3187 18.9375 10.0142C18.9375 8.70969 19.9465 7.76855 21.2817 7.76855C22.6244 7.76855 23.5993 8.71696 23.5993 10.0142C23.5993 10.1087 23.5917 10.2032 23.5727 10.2904H20.1172Z" fill="black"/>
<path d="M30.8203 10.0069C30.8203 9.30926 30.2703 8.77147 29.5951 8.77147C28.92 8.77147 28.37 9.29109 28.37 10.0069C28.37 10.7155 28.92 11.2424 29.5951 11.2424C30.2703 11.2424 30.8203 10.7082 30.8203 10.0069ZM27.251 13.9277V7.8485H28.3586V8.40809C28.6924 8.01202 29.1893 7.76855 29.781 7.76855C30.9986 7.76855 31.9545 8.72786 31.9545 9.99603C31.9545 11.2642 30.9796 12.2308 29.7545 12.2308C29.1855 12.2308 28.7189 12.0164 28.3927 11.653V13.9241H27.251V13.9277Z" fill="black"/>
<path d="M35.9488 10.0072C35.9488 9.28046 35.3988 8.77174 34.7236 8.77174C34.0484 8.77174 33.4984 9.29136 33.4984 10.0072C33.4984 10.7158 34.0484 11.2427 34.7236 11.2427C35.3988 11.2427 35.9488 10.734 35.9488 10.0072ZM35.9602 12.1656V11.6061C35.6264 11.9949 35.1295 12.2347 34.5377 12.2347C33.3012 12.2347 32.3643 11.2863 32.3643 10.0072C32.3643 8.73903 33.3391 7.77246 34.5643 7.77246C35.1408 7.77246 35.6264 8.01592 35.9602 8.39383V7.84877H37.0678V12.1656H35.9602Z" fill="black"/>
<path d="M25.253 8.27001C25.253 8.27001 25.5337 7.76855 26.2278 7.76855C26.5237 7.76855 26.7134 7.86667 26.7134 7.86667V8.96769C26.7134 8.96769 26.2961 8.72059 25.913 8.77147C25.5299 8.82234 25.2871 9.15664 25.2871 9.60722V12.1617H24.1416V7.8485H25.2492V8.27001H25.253Z" fill="black"/>
</svg>
