<svg width="1080" height="490" viewBox="0 0 1080 490" fill="none" xmlns="http://www.w3.org/2000/svg">
<path d="M171.936 7.61548C179.28 2.86348 187.488 0.271484 196.56 0.271484C208.224 0.271484 219.456 5.02348 227.664 13.2315C235.872 21.4395 240.624 32.6715 240.624 44.3355C240.624 52.9755 238.032 61.6155 233.28 68.9595C228.528 76.3035 221.616 81.9195 213.408 85.3755C205.2 88.8315 196.56 89.6955 187.92 87.9675C179.28 86.2395 171.504 81.9195 165.456 75.8715C159.408 69.8235 155.088 61.6155 153.36 53.4075C151.632 44.7675 152.496 36.1275 155.952 27.9195C158.976 19.2795 164.592 12.7995 171.936 7.61548ZM0 5.02348H79.056V482.815H0V5.02348ZM1067.9 141.535C1040.69 200.287 1008.29 256.447 971.568 309.583L1080 482.383H986.688L920.16 376.111C853.2 452.576 787.104 489.728 723.168 489.728C645.408 489.728 613.44 434 613.44 370.928V325.568C613.44 242.192 604.8 218.431 576.288 222.319C522.288 229.664 439.776 352.783 386.208 482.815H312.336V141.535H391.392V312.175C436.32 236.143 477.792 170.911 544.32 145.855C582.768 131.167 615.6 137.647 632.448 144.991C693.792 172.207 693.792 237.871 692.928 326.431V364.015C692.928 395.983 702 410.24 723.6 412.4C736.56 413.696 749.52 410.672 760.752 404.192V5.02348H839.808V347.168C839.808 347.168 908.496 284.527 980.64 141.967H1067.9V141.535ZM235.872 141.967H156.816V482.815H235.872V141.967Z" fill="#1D3944"/>
</svg>
